<svg width="61" height="13" viewBox="0 0 61 13" fill="none" xmlns="http://www.w3.org/2000/svg">
<path d="M6.464 12.208C7.488 12.208 8.432 11.968 9.296 11.472C10.16 10.976 10.832 10.304 11.296 9.472L10 8.736C9.36 9.952 8 10.752 6.464 10.752C5.168 10.752 4.112 10.336 3.296 9.504C2.48 8.672 2.08 7.632 2.08 6.4C2.08 5.152 2.48 4.112 3.296 3.28C4.112 2.448 5.168 2.032 6.464 2.032C8 2.032 9.36 2.832 10 4.064L11.296 3.312C10.336 1.648 8.512 0.591999 6.464 0.591999C4.768 0.591999 3.36 1.152 2.256 2.272C1.152 3.392 0.608 4.768 0.608 6.4C0.608 8.032 1.152 9.408 2.256 10.528C3.36 11.648 4.768 12.208 6.464 12.208ZM19.6361 10.992C20.4521 10.176 20.8681 9.184 20.8681 8C20.8681 6.816 20.4521 5.824 19.6361 5.008C18.8201 4.192 17.8121 3.792 16.6441 3.792C15.4761 3.792 14.4681 4.192 13.6521 5.008C12.8361 5.824 12.4361 6.816 12.4361 8C12.4361 9.184 12.8361 10.176 13.6521 10.992C14.4681 11.808 15.4761 12.208 16.6441 12.208C17.8121 12.208 18.8201 11.808 19.6361 10.992ZM16.6441 10.848C15.8601 10.848 15.1881 10.576 14.6441 10.032C14.1001 9.488 13.8281 8.816 13.8281 8C13.8281 7.184 14.1001 6.512 14.6441 5.968C15.1881 5.424 15.8601 5.152 16.6441 5.152C17.4441 5.152 18.1161 5.424 18.6601 5.968C19.2041 6.512 19.4761 7.184 19.4761 8C19.4761 8.816 19.2041 9.488 18.6601 10.032C18.1161 10.576 17.4441 10.848 16.6441 10.848ZM26.4931 3.792C25.3251 3.792 24.4611 4.24 23.9011 5.152V4H22.5091V12H23.9011V7.76C23.9011 5.968 24.8291 5.12 26.2211 5.12C27.4531 5.12 28.2051 5.872 28.2051 7.168V12H29.5971V7.088C29.5971 5.056 28.3651 3.792 26.4931 3.792ZM35.8924 4H33.7644V1.76L32.3724 2.176V4H30.7884V5.344H32.3724V9.68C32.3724 11.664 33.4604 12.32 35.8924 12V10.752C34.4684 10.816 33.7644 10.912 33.7644 9.68V5.344H35.8924V4ZM43.7581 5.376C43.0701 4.32 42.0621 3.792 40.7341 3.792C39.6141 3.792 38.6541 4.208 37.8701 5.024C37.0861 5.84 36.6861 6.832 36.6861 8C36.6861 9.168 37.0861 10.176 37.8701 10.992C38.6541 11.808 39.6141 12.208 40.7341 12.208C42.0621 12.208 43.0701 11.68 43.7581 10.624V12H45.1501V4H43.7581V5.376ZM40.9101 10.864C40.1101 10.864 39.4381 10.592 38.8941 10.048C38.3501 9.488 38.0781 8.816 38.0781 8C38.0781 7.184 38.3501 6.512 38.8941 5.968C39.4381 5.408 40.1101 5.136 40.9101 5.136C41.7261 5.136 42.3981 5.408 42.9421 5.968C43.4861 6.512 43.7581 7.184 43.7581 8C43.7581 8.816 43.4861 9.488 42.9421 10.048C42.3981 10.592 41.7261 10.864 40.9101 10.864ZM51.0191 12.208C52.5711 12.208 53.9311 11.392 54.6191 10.128L53.4351 9.44C52.9871 10.288 52.0911 10.832 51.0191 10.832C50.2191 10.832 49.5471 10.56 49.0031 10.016C48.4751 9.472 48.2031 8.8 48.2031 8C48.2031 7.184 48.4751 6.512 49.0031 5.968C49.5471 5.424 50.2191 5.152 51.0191 5.152C52.0911 5.152 52.9871 5.712 53.3871 6.56L54.5551 5.888C53.9311 4.608 52.6031 3.792 51.0191 3.792C49.8191 3.792 48.8111 4.192 48.0111 5.008C47.2111 5.808 46.8111 6.8 46.8111 8C46.8111 9.2 47.2111 10.192 48.0111 11.008C48.8111 11.808 49.8191 12.208 51.0191 12.208ZM60.3455 4H58.2175V1.76L56.8255 2.176V4H55.2415V5.344H56.8255V9.68C56.8255 11.664 57.9135 12.32 60.3455 12V10.752C58.9215 10.816 58.2175 10.912 58.2175 9.68V5.344H60.3455V4Z" fill="white"/>
</svg>
